<svg id="Layer_1" data-name="Layer 1" xmlns="http://www.w3.org/2000/svg" viewBox="0 0 512 512"><defs><style>.cls-1{fill:#707070;}</style></defs><title>user-plus-handdrawn</title><path class="cls-1" d="M429.5,458.54q-1,.64-2,1.19l.19,3.5a38.16,38.16,0,0,1-.39,11.44,30,30,0,0,1-24.72,23.42c1.55-.73.53-.44-3.95-.4l-25.51-.14-38.59.07-125.46-.14a2.79,2.79,0,0,1-.63-.11l6.38-.06,157.2-.24,12.62.15c6.23-.16,12.82.43,18.72-.5a28.87,28.87,0,0,0,15.76-8.57,15.63,15.63,0,0,0-2.92,2,29.24,29.24,0,0,1-12,5.16,31.22,31.22,0,0,1-7,.37l-7.78-.34c4.82-.13,8.75-.1,11.19-.36a30.36,30.36,0,0,0,6.22-1.41,29.26,29.26,0,0,0,10.72-6.33,27,27,0,0,0,5.59-8,29.33,29.33,0,0,0,2.08-15.74c0-.84-.11-1.7-.15-2.55A30.67,30.67,0,0,1,414.4,463c0,.26,0,.53,0,.79l.14,3,.05,1.41-.07.87a12.9,12.9,0,0,1-.55,3.23,16.36,16.36,0,0,1-2.42,5A17,17,0,0,1,400,484.11c-.56.11-1.14,0-1.71.11s-2,0-3,0H389l-12.52.08c-8.28.08-11.07.45-16.33.68l1.56.19-46.26-.35c-25.68-.55-67.39-.71-99.66-.29l-19.09.07-99.93,0-21.53,0H72.55c-.89,0-1.91,0-2.23,0a18.82,18.82,0,0,1-2.92-.31A16,16,0,0,1,62,482.16,16.92,16.92,0,0,1,54.94,473a20.09,20.09,0,0,1-.61-2.88,18.31,18.31,0,0,1-.07-3.61l.49-9.88a49.27,49.27,0,0,1,.87-8.37l1.27-8.42c1-5.59,2.73-11.07,4.08-16.58,2.08-5.27,3.69-10.69,6-15.67l3.58-7.33,1.75-3.6,2.08-3.34a145.12,145.12,0,0,1,30.75-37.2,160.33,160.33,0,0,1,40.79-26.07l8.94-3.23c6.89-2,12-3.46,16.45-4.55l-.1,8L183.8,338l18.11,10.68-2.74-1.37,8.19,5a21.27,21.27,0,0,0,2.7,2.51c.83.63,4.49,3,6.06,3.93l8.28,4.89,10.07,6.1L255,357.66l8.42-5.09,16.51-10.22,18.8-11.46c0-3-.05-5.95-.08-8.85l0-2.85,2.58.66.14,12.51L288.91,340c-.86.68-2.75,2.09-3.74,3-.46.41.23.19,1.41-.39l3.14-1.6,4-2.1c3.41-1.86,6.39-3.47,7.19-3.74a24.14,24.14,0,0,0,2.91-1.4c.17-2.88.22-8.1.24-13.15l5.56,1.43c2.27.76,4.33,1.51,6.22,2.21a85.1,85.1,0,0,0-8.41,22.87c1-1.94-.12,3.39-.77,11.58.48,2.06.94,3.35,1.33,5.69q.4,2.4.85-2.52a94.32,94.32,0,0,1,2.56-17.14,82.26,82.26,0,0,1,13.25-28.64c.28-.42.64-.83.94-1.25l.19-.22h0a99.07,99.07,0,0,1,12.55-13.43,81.06,81.06,0,0,1,48.92-20.1,94.65,94.65,0,0,1,12.47,0c3,.2,5.91.74,9.05,1.12,3.06.72,6.38,1.34,10,2.49-.94.05-.51.46,1.73,1.43l4.76,1.94c2,1,4.52,2.13,7.49,3.72,5.85,3.46,11.65,7.18,16.48,12a83.51,83.51,0,0,1,26.58,58.86.87.87,0,0,1-.09.34l-.23-3.36c-1.57-27.7-18.35-53.68-42.49-67.07-1.79-1.15-3.82-2.08-5.85-3.13a83,83,0,0,0-19-6.2,4.42,4.42,0,0,0,1.77,1l7,2.51,7.24,3.4c-9.56-3.22-9.49-2.87-16.08-5l-5.54-1a80.09,80.09,0,0,0-18.86-.13c-3.2.6-6.24,1-8.72,1.67l-5.53,1.74c-1.27.35-3.24,1.36-5.17,2.05a82.75,82.75,0,0,0-24.48,14.28c-13.18,11.25-18.1,23.73-15.34,20.08,1-1.16.42.56-.94,3.43-1.11,3-3.1,7.14-4.34,11.17a56.17,56.17,0,0,0-3.52,15.52c-.29,3-.16,4.1.09,4.61s.48-1.55.52.19c.34,7.57.46,3.32,1.86-4.47a37.71,37.71,0,0,0-.23,6.66c.14-3.76,1.08-7.1,1.77-11.14l1.81-6.89,2.09-5.59c4.67-10.38,12.82-22.05,23.25-30a73.7,73.7,0,0,1,23-12.41c-.37.52-2.77,1.82-2.23,2s3.83-1.47,15.67-3.11l-2.16,1.15c8.27-1.16,17.3-.9,22.55.48a86.75,86.75,0,0,1,21.42,7.32c3.27,1.7,4.46,2.15,6.64,3.13l-.5-.52a72,72,0,0,1,15.33,14,88.64,88.64,0,0,1,10.68,18.21,82.81,82.81,0,0,1,5.6,22.53,49.65,49.65,0,0,1,.16,8.55c-.45,15-6.36,29.45-15.52,41.1-8.12,9.94-18.62,18-30.79,22.36a68.72,68.72,0,0,1-32.23,3.87,75.31,75.31,0,0,1-42.07-20.08c-1-.94-2.58-2.79-3.15-3.43-6-7.83-7.93-10.07-10.91-15.61a11.32,11.32,0,0,0-2.38-3.45c-.41-.42.29,1.47-.31.65-1.34-2.08-4.28-9.06-4-7.27.15,2.39-1.22-2.16-2.52-6a82.7,82.7,0,0,0,3.29,11.91c-2.45-5.91-2.82-7.13-3.54-8.62a30.46,30.46,0,0,1-1.25-3.21c-.39-1.65-.86-4.09-1.48-8l.65,5.31a87.3,87.3,0,0,1-3.24-12.82,76.89,76.89,0,0,0,4.84,26.93c-.26.1-1.34-1.87-.64.69a30.5,30.5,0,0,0,2.18,6,48.57,48.57,0,0,0,3.63,7,78.34,78.34,0,0,0,9.89,13.12c2.67,3.16,5.54,5.33,7.67,7.44,2.32,1.89,4.26,3.35,5.65,4.58a63.67,63.67,0,0,0,13.12,7.7c3,1.29,6.09,2.42,9.19,3.47l0,.14a80.72,80.72,0,0,1-26.32-13.38,58.52,58.52,0,0,0,7.75,5.42,62.11,62.11,0,0,0,8.11,4.33,81.62,81.62,0,0,0,43.41,6.77c11.6-1,25.81-6.63,19.53-3.55a74.24,74.24,0,0,1-19,5.91,44.76,44.76,0,0,1-6.53.52l.83-.37a81.35,81.35,0,0,1-14.57-.07c5.21.68,8.15.7,8.81.82.28.27.86.48.63.65-.7.47,2.92,1.21-8,1.07l-7.53-.87c-2.46-.28-4.44-.89-5-.88a32.74,32.74,0,0,1-8.92-2.45l-3.8-1.37-3.74-1.73c-2.4-1.08-4.43-2-5.21-2.46-2.08-1-.44.31-.38.72l-3.66-2.08,4.83,3,4.39,2.15a56.59,56.59,0,0,0,7.78,3.27l1.5.16a81.36,81.36,0,0,0,23.54,4.77,82.34,82.34,0,0,0,25.11-2.42c-1.29.4-2.06.7-2.78.9a86.35,86.35,0,0,0,10.49-2.73,29.71,29.71,0,0,0,4.37-.79c1.29-.16,6.13-2.43,8.12-3.41,15-8.12,27.22-19.08,35.7-33.36,2.26-3.37,4-7.58,5.51-10.7a98,98,0,0,0,6.44-27.17A87.4,87.4,0,0,0,438.35,291c-6.87-4.56-18-8.42-16.23-7,.9.88-1.67-.77-11.8-3.23-2.47-.59-5.26-.86-7.89-1.3-20-2.32-41,2.21-57.79,13.46-2.52,1.6-4.85,3.4-7.29,5.09a88.27,88.27,0,0,0-14.8,15.55,168.21,168.21,0,0,0-18.47-5.72,78.76,78.76,0,0,0-.39-9.81c-.33-2.61-.65-6.67-.93-11.37,0-.41,0-1.08-.06-1.85-.63.39-1.3.74-2,1.08.05,5.12.18,9.71.26,14.81,0,2.1,0,4.23.07,6.36-.88-.2-1.74-.49-2.63-.68-.1-6.5-.2-13-.3-19.35a142.69,142.69,0,0,0,21.54-14.48,137.15,137.15,0,0,0,25.7-29,128.89,128.89,0,0,0,18.93-47.66c.35,1.06-.63,6.35-.1,5.54.21-.42,1.1-2.31,1.85-7.21.41-2.44,1-5.6,1.56-9.67.22-4,.64-9.27.75-15,.33,1.55.49,3,.67,4.52.31-16.29.42-31.89.36-42.93A120.34,120.34,0,0,0,360,84.64c-3-7.14-4.75-9.19-7-13.52l.47,1.39A135.84,135.84,0,0,0,341,53a82.66,82.66,0,0,0-6.92-8.39c-2.27-2.47-4.15-4.87-6-6.51A127.37,127.37,0,0,0,292.21,12.7,130.37,130.37,0,0,0,245.27.39c-4.85-.2-11.8-.68-17.76-.13a132.08,132.08,0,0,0-84.16,35.22,128.09,128.09,0,0,0-25,31,130.56,130.56,0,0,0-14.82,37c-1.64,5.43-2,11.22-3,16.91-.4,5.62-.77,11.83-.81,17,0,10.35-.09,20.54-.14,30-.12,3.56.14,7.91.31,12,.12,2.06.14,4.12.35,6.17l.88,6.11.91,6.09c.38,2,1,4,1.43,6a91.26,91.26,0,0,0,3.45,11.78,131.38,131.38,0,0,0,24.48,42.75l6.49,7.18c3.49,3.76,6.75,6.51,9.42,9s5.39,4.1,7.69,5.81c4.55,3.5,9,5.51,14.5,8.9a38.2,38.2,0,0,0,7.91,3.22c1.08.31-2.52-1.65-.63-.93.59.29,1.35.62,2.22,1v.07c-30.52,4.23-61.15,16.91-85.41,36.51A174.8,174.8,0,0,0,71.1,350.51l-2.19,2.68c10.72-12.28,23.37-22.64,36.75-31.72a188,188,0,0,1,43.85-20.32,41.45,41.45,0,0,1,5.65-1.81,43,43,0,0,0-5.53,2.14A197.14,197.14,0,0,1,179,294.91c0,2.95-.1,5.4-.24,7.15-.28,3.64-.33,8-.32,13.81l-.07,7.63-.14.05L178,298c0,5.82-.07,11.3-.11,16.79,0,3.92,0,7.85,0,11.74L198.2,338.8c8.91,5.42,20.1,12.93,14.52,10.22-4.18-2-10.12-5.18-15.58-8L192.24,338l.8.1-11.11-6.27,6.49,4.16c.08.34.42.76.15.81-.76.14,1.57,2.18-6.59-2.24-2.86-1.54-7.7-4.3-9.36-5.11a5.62,5.62,0,0,0-.07-.81c-.28-1.27-.27-3.54-.29-8.47,0-4.23-.14-10.16-.3-11.69-.2-1.93-.49-.19-.81,0l-.12-3.49c0,6.78,0,11.29-.06,15.74l.16.64c-.25-.59-.52-1.17-.72-1.77a23.66,23.66,0,0,1-1.05-6.11l-4.55,1.16-7.69,2-7,2.6c-15,5.33-25,11.54-31.1,15-3.47,1.73-6.81,4.34-10.71,7.17-1.91,1.46-4.07,2.85-6.12,4.65l-6.46,5.87c-4.85,4-8.76,9-13.12,13.57l-.14-.06a156.11,156.11,0,0,1,43.51-36.32c-5.24,3.27-10.66,6-15.26,9.76l-7.1,5.29c-2.32,1.8-4.37,3.89-6.57,5.82C75.65,369,60.27,394.39,51.6,421c-1.32,5.39-3.1,11.1-4.24,16.59l-2.51,14.84c-.66,8.29-1.17,12.2-1.11,5.56-.19-10,2.18-24.34,5.43-37.23.38-1.67,2.75-7.65,4.17-11.64l-.25,1.62c.81-2.2,1.44-4.34,2.31-6.34l2.76-5.9a99.89,99.89,0,0,1,6.56-12.69A75.52,75.52,0,0,0,59,395.93l-2.27,4.56c-.46.38-1.11,1.29-1.08.82.2-1.31-3.56,4.33,5.38-13.93,2.11-3.56,4.71-8.26,7.2-12.12,2.68-3.72,4.9-6.84,5.45-7.74a50.33,50.33,0,0,1,3.4-4.85l7.54-8.37a185.39,185.39,0,0,1,19-17.42c3.3-2.72,0-.64-.53-.61l6.13-4.73c-6,4.54-11.22,8.05-15.22,12-4.15,3.79-8,7-11.17,10.8l-1.55,2.25c-5.61,5.64-9.86,11.85-14.34,17.65-2.1,3-3.87,6.16-5.8,9.21a73,73,0,0,0-5.26,9.43l-4.75,9.9c-1.39,3.43-2.58,7-3.91,10.6l-2,5.49-1.47,5.82c-.89,4-2.24,7.95-2.85,12.25a50.19,50.19,0,0,1,1.23-6.67,82.26,82.26,0,0,0-2.25,11.37l-1.51,9.66c-.41,2.66-.72,3.58-1.17,8l-.55,7.39a31.17,31.17,0,0,0,.81,9.4,34.65,34.65,0,0,0,14.23,20.49,34.16,34.16,0,0,0,11.41,5,50,50,0,0,0,11.79.94l43.8.15,21.48,0,101.24-.49,123.29-.87c14.84-.16,36.16-.22,32.25-.85-1-.21-.32-.15,3.38-.41a31.8,31.8,0,0,0,27.3-20,32.44,32.44,0,0,0,2.17-14.25Zm-59.22-21.69a75,75,0,0,1-33.52-21.68l.71.49a38.68,38.68,0,0,0,4.62,4.69c2.62,2.59,5.7,4.55,8.65,6.74,5.24,3.19,10.73,6.3,16.48,8.13a52.46,52.46,0,0,0,5.06,2Zm99.88-40.51a27,27,0,0,1-1.93,4.33,62.22,62.22,0,0,1-3.81,7,91.16,91.16,0,0,0,4.37-8.79l-.17.25-2.72,5.69-3.52,5.89c6.85-11,10.39-23.69,11.82-29.52A85.29,85.29,0,0,1,470.17,396.34ZM262.45,347.63l-9.5,5.53,7.21-4.51-.25.1-9.76,5.9c9.37-6.08,19.08-11.95,23.72-14.37ZM287.82,332c-.1.06-.17,0-.29.05l2.28-1.44,4.08-2.47,0-10,.27,0q0,5,0,10.07Zm6-23.09.32.06v5.76l-.29-.05Zm23.82,12-.41-.15c-5-1.75-9.35-3-13.2-4,0-2,0-3.89,0-5.68a155.13,155.13,0,0,1,16.62,5.09C319.63,317.76,318.61,319.33,317.65,320.94Zm-16.48-4.81c-.87-.2-1.78-.42-2.59-.58q0-2.87-.09-5.72c.84.18,1.74.39,2.61.59C301.12,312.3,301.14,314.2,301.17,316.13Zm-2.73-9.44v-.36C299.17,306.63,299.13,306.73,298.44,306.69Zm-4.24-17q0,8.24,0,16.47l-.34,0L293.76,290a27.92,27.92,0,0,1-9.67,3.43c1.91-.75,3.53-1.45,4.67-2,2.76-1.12,5.53-2.44,8.31-3.9A26.09,26.09,0,0,1,294.2,289.73ZM208.86,15.42c-4,1.15-7.9,2.07-11.77,3.38-3.79,1.56-7.8,2.8-11.81,4.73a146.88,146.88,0,0,0-17.79,9.52l8.59-5.33,5-2.48-.46.17-4.47,2.18-4.34,2.65a78.23,78.23,0,0,0-9.11,6.05C178.87,23.33,199.45,17,208.86,15.42ZM138.47,261.08a106.24,106.24,0,0,1-8.17-9.77,145.23,145.23,0,0,1-11.69-17.69c-5.45-10.57-10-21.92-12.45-33.37-1.08-3.9-1-7-1.47-10.38l.74,3.8a130.73,130.73,0,0,0,34.28,68.46Zm45.47,61.36-.16-.53.23-27.6.19.07c0,3,0,5.9.06,8.88,0,5.87,0,11.86,0,17.62A8,8,0,0,1,183.93,322.45Zm4.95-.63-1-.62c-.11-.08,0,0-.08-.07l0-.06-.06-.11.05-.14c0-.11,0,.49,0-1.82l0-9.77c0-4.52-.07-9.11-.1-13.7,3.63,1.12,6.26,1.79,4.64,1.07-2.08-1-.9-.74,1.72.05s6.85,1.58,10.66,2.46c-3.77-1.09-7.27-1.82-10.82-3.11-1.85-.73-3.81-1.45-5.86-2.23l.48-.06c6.2,2.18,8.25,2.52,10.64,2.86,3.08.36,6.64,1.68,21.34,3.52l-9.8-1.63c4.06.22,7.89.63,11.77.64l12-.45c-14.9-.26-26.35-2.26-36.61-5.39,1.18,0,2.36-.16,3.54-.17,5.76-.25,13.12-.15,17.35-.3,25.7-.52,14.67-1.78-18.14-1.89-2.87,0-5.78.24-8.67.41q-2.58-.93-5.1-1.95c.11-.25,3.88.77-.39-1-2.82-1.24-6.14-3.13-9.94-5s-7.63-4.56-11.8-7c-3.92-2.79-8-5.69-11.71-8.78-3.52-3.33-7.33-6.19-10.1-9.52A109.51,109.51,0,0,1,124.63,233a178.19,178.19,0,0,1-10.15-24.13l-2.1-8.16-1-4.09-.62-4.17.14-.06a124.74,124.74,0,0,0,13.77,38.82c-1.11-2-2.18-4-3.09-6.13-2.47-4.66-4.07-9.6-5.86-14.46a128,128,0,0,1-6.29-37.19c-.21-12.35,0-24.43-.05-36.5.06-4.79.49-10.15.84-15.06.86-4.89,1.54-9.49,2.41-13,2.06-7,3.2-10.23,2-4.58-2.13,8.39-3,21-2.85,32.27,0,1.45,0,6.86,0,10.45l-.32-1.35.34,23.3.23-14.08c.25-.45.44-1.38.62-1,.51,1.06,1.06-4.51,1.47,12.43,0,3.46.27,7.89.58,11.66a42.15,42.15,0,0,0,.88,7.73c.32,1.15.6,2.59,1,4.75a66.12,66.12,0,0,0,1.85,9,104.08,104.08,0,0,0,7,19.84c1.69,3,.59.1.72-.36l2.81,5.55c-1.29-2.73-2.55-5.2-3.57-7.56l-2.46-6.78c-1.73-4.18-2.38-8.16-3.45-12l-.9-2c-2.43-12.63-2.53-23.89-2.39-35.88s-.5-24.28.56-38.12c-.16,2.69-.06,3.95-.1,5.46l.28-4.84.71-4.41c.47-2.81.81-5.4,1.28-7.73a64.54,64.54,0,0,0,2.34-6c.34-.86.83-3.2,1.74-5.6l2.44-6.45a113.4,113.4,0,0,1,18-31.11,130.06,130.06,0,0,1,26.1-23.75,136.71,136.71,0,0,1,15.12-8.49,116.26,116.26,0,0,1,38.77-11A119.56,119.56,0,0,1,309.59,44,121.36,121.36,0,0,1,340.41,82.2c3,5.32,5.43,12.3,7.41,17.42,1.47,5.28,2.53,8.71,2.43,7.08s1.68,2.47,3.25,18.17c.12,3.86.51,8,.51,12.13v23.26l0,11.62-.58,11.46A119.36,119.36,0,0,1,340.17,227c-2.14,4-4.66,7.68-7.07,11.45a16,16,0,0,0,1-1.66,119.5,119.5,0,0,1-72.35,50.72c1.6-.15.43.35-2.68,1.3a129.92,129.92,0,0,1-14.61,2.27c-3.06.74-5,1.36-8.72,2.05-2.54.48-1.23.65,4.08.52,2.64-.17,6.34.06,10.94-.81l7.67-1.17c2.78-.55,5.76-1.45,9-2.27a123.77,123.77,0,0,0,45-23.57c8.29-7.16,16.87-16.24,21.93-23.94,15.42-22.46,23.52-50.37,21.77-81.17-.05-6.65-.1-13.28-.15-19.63a155.54,155.54,0,0,0-2.77-30.3c.53,1.3.82.39-.07-3.37l-1.9-8c-1.06-3.38-2.61-7.52-4.52-12.53A130,130,0,0,0,330,59.13C308.3,31.22,273.82,14.05,238.58,13a2,2,0,0,1-.53-.13l5.38.21a54.2,54.2,0,0,1,8.24.88c2.73.44,5.49.75,8.19,1.31,5.34,1.45,10.8,2.47,15.93,4.6,10.51,3.51,20.28,9,29.38,15.22s17,14.17,24.28,22.54a131.1,131.1,0,0,1,17.31,28.28c1.45,3.1,2.35,6.59,3.66,10a60.24,60.24,0,0,1,2.25,7.68c.62,2.6,1.44,5.16,1.89,7.8.72,5.31,1.91,10.57,1.94,15.94a7.7,7.7,0,0,0,.41-3.15c0-3.72-.63-7.76-1-12s-1.62-8.59-2.42-13c2.37,8.07,3.44,12.11,3.81,15.6a66.32,66.32,0,0,1,1,12l.28,9.32c0,8.43.12,20.11.18,30.68a170.55,170.55,0,0,1-1.16,24.38,49.2,49.2,0,0,1-1.53,9.27,123.26,123.26,0,0,1-20,43.71,155.7,155.7,0,0,1-12.82,15.44c-4.43,4.06-8,7.93-11.31,10.36-6.36,5.15-9.16,7.51-5.83,5.59,4.67-2.69-9.11,8.76-23.39,14.44l-9.29,3.46c-2.81.94-5.41,1.51-7.68,2.17a82.41,82.41,0,0,1-10.74,2.47c-5.36,1-7.33,1.64-8.21,1.85-.67.24,3,.2-.21.54-7,.64-8.57,1-6.48,1.07a76.67,76.67,0,0,0,15.37-1,87.49,87.49,0,0,1-12.67,1.87l5.35-.21,5.28-.69c3.53-.54,7.22-.79,11.09-1.91a125.48,125.48,0,0,0,16.66-5.07c-.12,3.88-.2,8.12-.25,12.6,0,3.59,0,7.27,0,10.93l0,2.69,0,0,.08.1,0,.12,0,.06,0,0-.75.46-3.92,2.36-39.25,23.52-2.45,1.48-.08.07-.14.12-.21-.06-4.74-2.78-12-7.13C207.92,333.42,197.71,327.3,188.88,321.81ZM87,368.87c4.56-4.94,8.93-10.06,14.12-14.35,4.8-4.72,10.37-8.51,15.73-12.54,11.21-7.31,23-14,35.77-18.11l-1.5.77-6.21,2.19c-2,.87-4,1.86-5.94,2.8-3.25,1.68-6.68,3-9.74,5l-9.34,5.72c-2.62,1.59-5,3.64-7.46,5.43s-5.08,3.53-7.27,5.72c-4.48,4.23-9.3,8.07-13.16,12.71-2.74,3.13-5.21,5.07-7.42,7.89A24.39,24.39,0,0,1,87,368.87Zm57,129-24-.14,18.58-.15-.57,0-24.91,0c24.38-.39,49.16-.43,60.56-.11Zm-41,11.73c34.18,0,66.93.91,53.54,1.62l-8.07.17-62,.65-9-.3-5.28-.16-1.53,0-2.13-.13a32.57,32.57,0,0,1-4.51-.56A43.56,43.56,0,0,1,38.28,496.5c-.08.14-2.57-2.37.21.92,4.8,5.37,7.22,6.7,4.71,5.08a43.1,43.1,0,0,1-6.33-6.07,44,44,0,0,1-8.45-15.78,44.85,44.85,0,0,1-1.5-7.31,43,43,0,0,1-.25-6.89l.53-11.21c.11-1.87.15-3.75.32-5.62l.82-5.57L30,432.94c3.31-14.53,7.64-28.62,13.94-40.62,2.42-4.85,5.35-10.36,5-9.31-1.23,3-2.37,6.44-3.74,10a95.76,95.76,0,0,0-3.85,11.56c-.49,1.77-1.49,4.77-3.08,9.29s-2.9,10.85-5.08,18.92l-2.33,14.8c-.8,4.94-.7,10-1.08,15l-.19,3.76-.09,1.9.1,2.4a40.75,40.75,0,0,0,11.27,26,40.9,40.9,0,0,0,16,10.45,42.12,42.12,0,0,0,9.41,2.19c1.56.14,3.3.21,4.72.25H103Zm300.94-4.89a36.54,36.54,0,0,0,16.13-5.5,37.94,37.94,0,0,1-20,7c-2,.13-3.36.09-4.91.11l-4.6,0-9.42,0c-12.73,0-26.07,0-39.38-.24-4-.07-19.1,0-23.3.11-10.27.27-19.14.59-24.84.93-5.45.32-13.35.47-27.18.37-16.28-.12-40.17.1-44.38-.6-2-.34-18.35-.63-27.17-1-2.85-.11-4.41-.27-3.08-.39l10.35-.63,85.63-.51c18.06-.14,32.82-.4,55.06-.26l47.95,0,6,.55A37,37,0,0,0,403.9,504.67ZM217.26,370.43c3.72,2.69,2.56,2.22-5.64-2.69-10.66-6.38-22.18-12.93-31.71-19.21-1.91-1.26-4.08-2.78-3.63-2.65,2.71.78,6,1.89,9.43,3.14,1.5.54,4.85,2.46,11,6.2l37.77,22.87,17.93-10.75c13.42-8.06,26.74-15,21.85-11.22-.48.37-1.85,1.26-3.08,2l-25.52,16.07-11.18,6.2-4.39-2.83-12.8-7.71C217.2,370,216.14,369.63,217.26,370.43ZM124.64,231.19c1.46,2.66,3,5.29,4.63,8C127.59,236.58,126.12,233.88,124.64,231.19ZM135,95c-3.89,9.28-5.9,19.53-7.13,29.59-.69,9.59-.52,21.52-.79,31.82-.1,4.17-.29,9-.41,8.18-.72-5-1.44-11.1-2.15-17.73a150,150,0,0,1,.18-22,111,111,0,0,1,39-74.16,104.94,104.94,0,0,1,29.06-17c7.79-2.49,11.27-3.38,6.69-1.29-.9.41-3.38,1.38-5.61,2.23A105.36,105.36,0,0,0,156.35,61l-4.75,4.76c-1.65,1.82-3.3,4-5.38,6.6a40.09,40.09,0,0,0-3.86,5.81,68,68,0,0,0-4.28,7.59c.15.05-.47,1.78.6-.18C142.66,79.31,141.27,80.92,135,95ZM239.75,21.93a89.79,89.79,0,0,0-12.63-.37c-2.24,0-3.48-.1-2.45-.27,2.22-.36,6.26-.8,8.14-1a114.44,114.44,0,0,1,64.47,18.11c11.93,7.9,21.18,15.69,31.55,30.08a123.53,123.53,0,0,1,16.54,34.26l1.31,9.61.64,10.93a120.6,120.6,0,0,0-20.58-54.36c-1-1.24-3-4.36-5.52-7.2L314.94,55l-8.45-7.14-7-4.61c-1.73-1.23-4-2.44-7-4.13l-4.95-2.91L281.12,33a72.82,72.82,0,0,0-9.46-3.86,74.09,74.09,0,0,0-10-3l-4.54-1.23-4-.69a36.4,36.4,0,0,1-4.88-1.12C247.54,22.67,244,22.24,239.75,21.93ZM200.3,275.14c-2.93-1.08-8.51-2.64-12.08-4.66a105.37,105.37,0,0,1-30.27-21.19l3.39,2.47L158.18,249a116.14,116.14,0,0,1-19.32-27.46A107.61,107.61,0,0,1,129,189.81l.52,2.3c.74,3.44,1.75,6.85,2.58,10.29,1.09,3.36,2.41,6.63,3.53,9.9,9.88,24.38,30.18,44.9,53,55.94l3.83,2,3.64,1.44,6.16,2.52c3.7,1.12,6.29,2,7.57,2.51C212.47,277.66,209.73,277.6,200.3,275.14ZM408.88,451.2l.75-.17C409.38,451.09,409.14,451.15,408.88,451.2ZM337.34,297.94h0c.33-.27.62-.57,1-.83ZM485.2,394c-.18.79-.88,2.87-1.52,4.73a97.72,97.72,0,0,1-19.25,32.82,112.57,112.57,0,0,1-9.48,8.33,127.89,127.89,0,0,1-10.45,7.61c.1.12-1.09,1.07.55.2,5.34-3.15,4.3-1.71-7,4.79-14.92,7.88-33.07,12.37-48.56,11.16-3.09-.24-6.65-.63-6-.71,3.74-.58,8.23-.81,13-1.95,1-.21,2.8-.37,5.5-.61,2.67-.51,6.3-.85,10.92-1.86,22.17-4.59,42.57-18,56.08-36.3C481.73,405.76,486.44,385.72,485.2,394Zm-64.57-115.8a77.67,77.67,0,0,0-7.47-3.13c12.25,2.82,27.16,9,38.64,19.62l5,4.55c2,1.95,3.85,4.06,4.74,4.91a77.14,77.14,0,0,1,5.5,6.17,54.87,54.87,0,0,1,3.94,4.91c1,1.29,2.1,2.91,3.49,5.1,1.18,2.3,2.67,5.17,4.26,8.93l2.64,7.36c.79,2.6,1.4,5.28,2,7.73a45.69,45.69,0,0,1,1.25,10.34c-.2,1.23.29,10.78-.61,15.86-.19,1.65-.4,2.53-.48,1.76-.16-1.67-.25-4.62-.33-6-.11-17.48-4.71-33.63-12.81-46.78-5.37-8.81-10.8-15.42-20.31-23.78a94.15,94.15,0,0,0-23.29-14.13ZM316.12,425.68a24.43,24.43,0,0,0,2.23,2.53,99.7,99.7,0,0,0,20.05,18.86,103,103,0,0,0,24.79,12.64,17.94,17.94,0,0,1-1.94-.45c-2.8-1-5.66-2-8.42-3.14l-8-3.88c-19.44-10.63-35.67-28.47-43.62-48.4a73.9,73.9,0,0,1-4.78-18.42c-.12-2.28.71-.16,3,7.36.75,2.41,2.56,6.7,3.65,9.79A103.11,103.11,0,0,0,318.61,428,24.38,24.38,0,0,1,316.12,425.68Zm101.79-63.48-.6-.1c1.43.12,3.39.2,1.9.17C418.74,362.27,418.14,362.24,417.91,362.21Zm-.6-.1-.84-.09A8.37,8.37,0,0,1,417.31,362.11Zm-67.18-1.69c0,.16-.53.35.1.48a46.26,46.26,0,0,0,7.28.14,27.31,27.31,0,0,1,4.25.14,21.77,21.77,0,0,0,3.59.19c.77,0,1.54,0,2.31,0v.08l-7,.13c1.51.06,2.93.06,4.36.06,3.47,0,7,0,10.39,0,2.71,0,6.2.42,4.6.74-1.2.23-2.94.44-4.54.65-.21,0-1,0-1.48,0l.19-.19-3.31.19,2,.13c.06.14.2.25.14.35-.15.29.64.6-1.77.84a26.31,26.31,0,0,0-2.78.29,5.94,5.94,0,0,1-2,.17,25.67,25.67,0,0,0-3,.17c-.5.12,0,.28,0,.46l-.9.07,4.08,0,.32-.21c1.86.06,3.51.14,5.2.15s3.43-.05,5.46-.09l-.79.14,2.5.07a3.17,3.17,0,0,0,.94.43,12,12,0,0,0,1.84.14c-1,0-2,.09-.23.09.86,0,1.82,0,2.55,0,.9,0,1.88-.05,2.83-.08,0,0,0,.1,0,.11-.4.5-.28,3.34-.34,5.28a10.91,10.91,0,0,0,.21,3.23,22.76,22.76,0,0,1,.53,3,24.16,24.16,0,0,1,.06,2.77c-.29,3.16-.06,6.35-.07,8.92.21-.6.39-1.17.58-1.65s.41-1,.62-1.44c0-1.71-.08-3.88,0-5.7.08-2.64-.07-4.4-.15-6.54-.09-2.53-.16-5.19-.23-8l1.51,0c0,.84,0,1.68,0,2.51.14,5,.26,10,.5,14.66.09,1.76.13,4.3.48,3.83.19-.25.2.4.15,2.67,0,.55,0,1.16,0,1.74,0,.87,0,1.29,0,1.54,0,0,0,.26,0,1.83,0,.65-.07,1.29-.1,1.94l-.05-.28c0,4.31.08,8.63.12,13.06.29-.46.45.73.47,2.54a9.83,9.83,0,0,1,.92,1.25c.4.72.55-.74.46-4.51-.05-2.36-.07-4.79-.1-7.19,0-1.54,0-3.29-.07-4.58-.17-3.06-.3-6.23-.37-9.58a14.62,14.62,0,0,0,.18-3.29c0-1.53,0-3.07,0-4.59q0-5.64.06-11.27l.14,0q.06,7.85.12,15.7c0,.48-.08,1-.09,1.5,0,1.5,0,3,0,4.52.11-.13.23,0,.33-.44.25-1,.5-2.28.76-3.52a9.77,9.77,0,0,1,0,3.9c0,.23-.06.83-.07,1.3-.05,2.4.19-3.2.43-2.09a6.67,6.67,0,0,1,.17,1.29c0,2.21,0,4.44,0,6.65,0,4,.37,7,.79,6,.29-.72.89,1.67.93,3.72.07,3.92.35,4.76.62,5,.1.09.23-.39.3,0,.32,1.86.55.83.74-1.16l.26,1.68c.07-.95.17-1.82.2-2.87s0-2.69,0-3.34c.28-2.91.23-6.46.25-9.8,0-2.14-.07-4.32-.11-6.72.41.26.89,2.78,1-3.47l.46.6c.08-2.21.1,5.28.23,3.84a44.22,44.22,0,0,0,.11-6.07,8.13,8.13,0,0,0-.39-1.94l-.11.19c.06-1.87.07-4.22.2-5.5a78.85,78.85,0,0,0,.29-8.35,10.11,10.11,0,0,0,2.57-.21,22.76,22.76,0,0,1,3-.53,24.16,24.16,0,0,1,2.77-.06c3.16.29,6.35.06,8.92.07-.6-.21-1.17-.39-1.65-.58s-1-.41-1.44-.62c-1.71,0-3.88.08-5.7,0-2.64-.08-4.4.07-6.54.15l-1.93.06c0-.5,0-1-.06-1.48,3.81-.11,7.59-.21,11.15-.4,1.76-.09,4.3-.13,3.83-.48-.25-.19.4-.2,2.67-.15.55,0,1.16,0,1.74,0h2.45c.65,0,1.29.07,1.94.1l-.28.05,13.06-.12c-.46-.29.73-.45,2.54-.47a9.83,9.83,0,0,1,1.25-.92c.72-.4-.74-.55-4.51-.46-2.36.05-4.79.07-7.19.1-1.54,0-3.29,0-4.58.07-2.8.16-5.69.27-8.71.35a16.47,16.47,0,0,0-3.23-.16c-1.53,0-3.07,0-4.59,0l-7.6,0v-.19l12.06-.09c.48,0,1,.08,1.5.09,1.5,0,3,0,4.52,0-.13-.11,0-.23-.44-.33-1-.25-2.28-.5-3.52-.76a16.43,16.43,0,0,1,2.46-.15c-.36-.05-.54-.11-.28-.16a6.67,6.67,0,0,1,1.29-.17c2.21,0,4.44,0,6.65,0,4,0,7-.37,6-.79-.72-.29,1.67-.89,3.72-.93,3.92-.07,4.76-.35,5-.62.09-.1-.39-.23,0-.3,1.86-.32.83-.55-1.16-.74l1.68-.26c-.95-.07-1.82-.17-2.87-.2s-2.69,0-3.34,0c-2.91-.28-6.46-.23-9.8-.25-2.14,0-4.32.07-6.72.11.26-.41,2.78-.89-3.47-1l.6-.46c-2.21-.08,6.21-.1,4.77-.23a44.22,44.22,0,0,0-6.07-.11,8.13,8.13,0,0,0-1.94.39l.19.11c-1.87-.06-4.22-.07-5.5-.2-1.45-.15-3.34-.24-5.33-.28,0-1.49,0-3,0-4.46,0-2.26-.06-4.51-.09-6.76,0-.06,0-.16,0-.44.15-4.25.21-8.33.06-12.61,0-.37,0-1,0-1.24a22.3,22.3,0,0,0-.17-5.07,1.65,1.65,0,0,0-.36-1.09c-.11-.14-.22.38-.32.13-.24-.64-.5-2.58-.71-2.12s-.38-.62-.54-1.65l-.18,3.12c-.18-3.22-.7-1.27-.81-5.2l-.08,1.32-1.19-3.17v6.6c-.16,0-.35-.53-.48.1a46.26,46.26,0,0,0-.14,7.28,27.31,27.31,0,0,1-.14,4.25,21.77,21.77,0,0,0-.19,3.59c0,.77,0,1.54,0,2.31h-.08l-.13-7c-.06,1.51-.06,2.93-.06,4.36,0,.17,0,.2,0,.32,0-1.2,0-3.86,0-1.63,0,2.71-.42,6.2-.74,4.6-.19-1-.36-2.32-.53-3.64,0,2.78-.08,7-.13,6.2l-.13,2c-.14.06-.25.2-.35.14-.29-.15-.6.64-.84-1.77a26.31,26.31,0,0,0-.29-2.78,5.94,5.94,0,0,1-.17-2,25.67,25.67,0,0,0-.17-3c-.12-.5-.28,0-.46,0l-.07-.9c0,1.18,0,2.06,0,2.88l-.06,2.18a3.16,3.16,0,0,0-.43.94,11.91,11.91,0,0,0-.14,1.87c.12,3.64-.09,7-.08,10.51,0,.67,0,1.36,0,2h-4.15c.1-1.14.16-2.48.16-3.87,0-4.48,0-9,.11-13.44a11.09,11.09,0,0,0-.19-3.27c-.41-.94-.82,9.89-1.23,9.18-.07-.12-.18.57-.23,1.16,0,0,0,0,0,.06.06.28.14.09.26-.52.07-.36.17-.06.26-.07,0,.85,0,2,0,2.5-.1,1.05-.24,1.76-.34,2.43.1,2,.2,3.92.3,5.84-1.77,0-3.55,0-5.32,0-3.42,0,4,.12.55.14-2.89,0-6,0-8.68-.07-4.25-.15-8.33-.21-12.61-.06-.37,0-1,0-1.24,0a22.3,22.3,0,0,0-5.07.17,1.65,1.65,0,0,0-1.09.36c-.14.11.38.22.12.32-.64.24-2.58.5-2.12.71s-.62.38-1.65.54l3.12.18c-3.22.18-1.27.7-5.2.81l1.32.08-3.17,1.19ZM415.59,364c.1-.1.11-.19,0-.26,2.32,0,4.75,0,4.28.06ZM392,387.81s0,0,0,0C392,388,392,388.1,392,387.81Zm.55-20.19c0-.51,0-1,0-1.52h.11q0,.76,0,1.52Zm5.29-37.06.12.21c0,.56-.06,1.12-.05,1.67,0,.93,0,1.85,0,2.78,0,1.56,0,3.14,0,4.67a8.26,8.26,0,0,1-.21,1.37l-.09-.51Q397.74,335.66,397.83,330.56Zm-5.16,25.49h-.12c0-.84,0-1.68,0-2.66C392.6,354.3,392.64,355.19,392.67,356.05Zm-.23-1.84.07,1.85h-.14C392.39,355.59,392.41,355,392.44,354.21Zm-2-14.26.09.14c-.05,1.84-.13,3.48-.14,5.15C390.41,344.49,390.43,341.61,390.45,340Zm0-.9,0-.11C390.48,338.77,390.49,338.74,390.49,339.05Zm-2.33,24.33v0l.21,0Zm-.45-.06v.09c-.93.07-1.84.15-2.86.19-.52,0-1.37,0-2.85-.08l2.21-.09-.07,0-3,0A49.15,49.15,0,0,1,387.71,363.32ZM357.62,358c.56,0,1.12.06,1.67.05.93,0,1.85,0,2.78,0,1.56,0,3.14,0,4.67,0a8.25,8.25,0,0,1,1.37.21l-.51.09-10.2-.18Zm26.18,13.4c-.06.07-.16.15.12.2,1.19.22.87.33-1.61.34-3.23,0-6.66.18-9.63-.09-.59-.06-1.28-.16-1.16-.23a24.27,24.27,0,0,1,2.52-1.23,11.09,11.09,0,0,1,3.27-.19c4.44.07-1.81.12,2.66.11,4.06,0,8,.52,6.36.93a7.1,7.1,0,0,1-1,.1Zm-26.92-.68-.66.25.66-.05,10.69,1-.38.1c-1.14,0-2.29,0-3.4,0-4.22-.06-8.59.07-12.67-.2-3.84-.26-5.19-.84-2.12-1.18a19.75,19.75,0,0,1,2-.1C352.94,370.62,354.81,370.68,356.88,370.73ZM393,335.67a16.24,16.24,0,0,0-.07,2.19l-.12-.9c0-.21,0-1,0-1.48Zm-9,8.09a15.9,15.9,0,0,0,.08,2.13C383.84,348.55,384,340.57,384,343.76ZM385.23,330l-.25-.66.05.66-1,10.69-.1-.38c0-1.14,0-2.29,0-3.4.06-4.22-.07-8.59.2-12.67.26-3.84.84-5.19,1.18-2.12a19.75,19.75,0,0,1,.1,2C385.34,326.1,385.28,328,385.23,330Z"/></svg>